<svg width="12" height="14" viewBox="0 0 12 14" fill="none" xmlns="http://www.w3.org/2000/svg">
<path d="M7.75882 2.23306C8.02346 1.92805 8.22524 1.57376 8.35258 1.19055C8.47992 0.807335 8.5303 0.402741 8.50084 0C7.68838 0.0655828 6.9342 0.447702 6.40078 1.06403C6.14534 1.35942 5.95177 1.70306 5.83153 2.07461C5.71129 2.44616 5.66682 2.83805 5.70076 3.22709C6.09707 3.23039 6.48883 3.14246 6.84571 2.97009C7.20259 2.79771 7.51502 2.54553 7.75882 2.23306ZM9.52287 7.44121C9.52756 6.90481 9.66885 6.37846 9.93341 5.91181C10.198 5.44517 10.5771 5.05362 11.0349 4.77414C10.746 4.35779 10.364 4.0145 9.91925 3.77148C9.47453 3.52846 8.9793 3.3924 8.47284 3.3741C7.38081 3.26209 6.37278 4.01111 5.79176 4.01111C5.21075 4.01111 4.39172 3.3881 3.4817 3.4021C2.88677 3.42169 2.30708 3.59515 1.79916 3.90554C1.29125 4.21593 0.872447 4.65267 0.583614 5.17315C-0.648421 7.31521 0.268605 10.5003 1.50064 12.2293C2.06066 13.0764 2.76068 14.0354 3.6847 14.0004C4.60873 13.9654 4.90974 13.4264 5.98077 13.4264C7.0518 13.4264 7.38081 14.0004 8.29083 13.9794C9.20086 13.9584 9.84488 13.1114 10.4329 12.2643C10.8494 11.6494 11.1748 10.9774 11.3989 10.2693C10.8441 10.0327 10.3708 9.63877 10.0374 9.13618C9.70401 8.63358 9.52513 8.04433 9.52287 7.44121Z" fill="white"/>
</svg>
