<svg width="83" height="84" viewBox="0 0 83 84" fill="none" xmlns="http://www.w3.org/2000/svg">
<g clip-path="url(#clip0_72_1774)">
<path d="M10.7168 11.1523H20.9888V21.4243H10.7168V11.1523Z" fill="black"/>
<path d="M31.2607 0.882812V31.6987H0.444824V0.882812H31.2607ZM26.1247 6.0188H5.58081V26.5627H26.1247V6.0188ZM20.9888 62.5146H10.7168V72.7866H20.9888V62.5146Z" fill="black"/>
<path d="M31.2607 52.2402V83.0561H0.444824V52.2402H31.2607ZM5.58081 57.3762V77.9202H26.1247V57.3762H5.58081ZM62.0766 11.1523H72.3486V21.4243H62.0766V11.1523Z" fill="black"/>
<path d="M51.8047 0.882812V31.6987H82.6206V0.882812H51.8047ZM77.4846 6.0188V26.5627H56.9407V6.0188H77.4846ZM41.5327 6.0188V0.882812H46.6687V11.1548H41.5327V21.4268H36.3967V6.0188H41.5327ZM41.5327 31.6987V21.4268H46.6687V31.6987H41.5327ZM31.2607 41.9707V36.8347H36.3967V31.6987H41.5327V41.9707H46.6687V36.8347H72.3486V41.9707H51.8047V47.1067H36.3967V41.9707H31.2607ZM31.2607 41.9707V47.1067H10.7168V41.9707H5.58081V47.1067H0.444824V36.8347H15.8528V41.9707H31.2607ZM82.6206 47.1067H77.4846V36.8347H82.6206V47.1067ZM77.4846 47.1067H72.3486V57.3786H82.6206V52.2427H77.4846V47.1067ZM56.9407 47.1067H67.2126V52.2427H62.0766V57.3786H56.9407V47.1067ZM67.2126 62.5146V57.3786H62.0766V62.5146H56.9407V67.6506H46.6687V72.7866H62.0766V62.5146H67.2126ZM67.2126 62.5146H82.6206V67.6506H72.3486V72.7866H67.2126V62.5146ZM46.6687 57.3786V62.5146H51.8047V52.2427H36.3967V57.3786H46.6687Z" fill="black"/>
<path d="M36.3967 62.5156H41.5327V77.9236H62.0767V83.0596H36.3967V62.5156ZM82.6206 72.7876V83.0596H67.2126V77.9236H77.4846V72.7876H82.6206Z" fill="black"/>
</g>
<defs>
<clipPath id="clip0_72_1774">
<rect width="82.1758" height="82.1758" fill="white" transform="translate(0.444824 0.882812)"/>
</clipPath>
</defs>
</svg>
