<svg width="59" height="58" viewBox="0 0 59 58" fill="none" xmlns="http://www.w3.org/2000/svg">
<rect width="59" height="58" fill="#1E1E1E"/>
<g id="Package details" clip-path="url(#clip0_0_1)">
<rect width="1728" height="5286" transform="translate(-1460 -4964)" fill="white"/>
<path id="Rectangle 249" d="M-1460 -3835H268V322H-1460V-3835Z" fill="#F8F8F8"/>
<g id="Group 4814755">
<rect id="Rectangle 183" x="-1460" y="-158" width="1728" height="406.8" fill="white"/>
<g id="ic:outline-facebook">
<path id="Vector" d="M53.3502 29.1536C53.3502 15.9265 42.6151 5.19141 29.388 5.19141C16.1608 5.19141 5.42578 15.9265 5.42578 29.1536C5.42578 40.7513 13.6688 50.408 24.5955 52.6365V36.3422H19.8031V29.1536H24.5955V23.163C24.5955 18.5383 28.3576 14.7763 32.9823 14.7763H38.9728V21.9649H34.1804C32.8625 21.9649 31.7842 23.0432 31.7842 24.3612V29.1536H38.9728V36.3422H31.7842V52.996C43.8851 51.7979 53.3502 41.59 53.3502 29.1536Z" fill="#1E1E1E"/>
</g>
</g>
</g>
<defs>
<clipPath id="clip0_0_1">
<rect width="1728" height="5286" fill="white" transform="translate(-1460 -4964)"/>
</clipPath>
</defs>
</svg>
