<svg width="14" height="14" viewBox="0 0 14 14" fill="none" xmlns="http://www.w3.org/2000/svg">
<g clip-path="url(#clip0_72_617)">
<path d="M4.87646 0.460787C3.47764 0.94605 2.27131 1.86709 1.43464 3.08863C0.597971 4.31017 0.175076 5.76782 0.228069 7.24747C0.281063 8.72712 0.807151 10.1508 1.72906 11.3093C2.65097 12.4679 3.92011 13.3003 5.35005 13.6842C6.50935 13.9834 7.72394 13.9965 8.88943 13.7225C9.94525 13.4853 10.9214 12.9781 11.7222 12.2503C12.5558 11.4698 13.1608 10.4768 13.4722 9.37813C13.8108 8.18339 13.871 6.92696 13.6483 5.70532H7.13834V8.40579H10.9085C10.8331 8.83649 10.6717 9.24757 10.4338 9.61442C10.1958 9.98126 9.88634 10.2963 9.5238 10.5408C9.06343 10.8453 8.54446 11.0502 8.00021 11.1424C7.45437 11.2438 6.89449 11.2438 6.34865 11.1424C5.79542 11.028 5.27207 10.7996 4.81193 10.4719C4.07272 9.94862 3.51767 9.20524 3.22599 8.34782C2.92938 7.47434 2.92938 6.52739 3.22599 5.65391C3.43361 5.04165 3.77684 4.48419 4.23005 4.02313C4.7487 3.48582 5.40532 3.10175 6.12788 2.91306C6.85044 2.72436 7.61101 2.73834 8.32615 2.95344C8.8848 3.12493 9.39567 3.42456 9.81802 3.82844C10.2431 3.40553 10.6675 2.98152 11.0911 2.55641C11.3099 2.32782 11.5483 2.11016 11.7638 1.8761C11.1191 1.27615 10.3624 0.809318 9.53693 0.50235C8.03379 -0.0434427 6.38909 -0.0581104 4.87646 0.460787Z" fill="white"/>
<path d="M4.87716 0.461319C6.38967 -0.0579315 8.03436 -0.04365 9.53763 0.501787C10.3632 0.810841 11.1196 1.27992 11.7634 1.8821C11.5447 2.11616 11.3139 2.33491 11.0908 2.56241C10.6664 2.98606 10.2424 3.40825 9.81872 3.82897C9.39637 3.42509 8.8855 3.12547 8.32685 2.95397C7.61194 2.73811 6.8514 2.72333 6.12865 2.91126C5.4059 3.09918 4.74887 3.48254 4.22966 4.01929C3.77644 4.48034 3.43322 5.03781 3.2256 5.65007L0.958252 3.8946C1.76982 2.28521 3.17501 1.05416 4.87716 0.461319Z" fill="#E33629"/>
<path d="M0.356813 5.63359C0.47868 5.02962 0.681005 4.44472 0.958376 3.89453L3.22572 5.65438C2.92911 6.52785 2.92911 7.47481 3.22572 8.34828C2.4703 8.93161 1.71452 9.51787 0.958376 10.107C0.264009 8.72488 0.0522396 7.15008 0.356813 5.63359Z" fill="#F8BD00"/>
<path d="M7.13843 5.70312H13.6484C13.8711 6.92477 13.8109 8.1812 13.4723 9.37594C13.1609 10.4746 12.5559 11.4676 11.7223 12.2481C10.9906 11.6772 10.2556 11.1106 9.52389 10.5397C9.88667 10.295 10.1963 9.97957 10.4342 9.61233C10.6722 9.24509 10.8335 8.83359 10.9086 8.4025H7.13843C7.13733 7.50344 7.13843 6.60328 7.13843 5.70312Z" fill="#587DBD"/>
<path d="M0.957031 10.1064C1.71318 9.52307 2.46896 8.93682 3.22438 8.34766C3.51663 9.20537 4.07247 9.94879 4.8125 10.4717C5.27407 10.7979 5.79855 11.0244 6.3525 11.1367C6.89834 11.2382 7.45822 11.2382 8.00406 11.1367C8.54831 11.0446 9.06728 10.8397 9.52766 10.5352C10.2594 11.1061 10.9944 11.6727 11.7261 12.2436C10.9253 12.9717 9.94921 13.4794 8.89328 13.7169C7.72779 13.9909 6.5132 13.9777 5.35391 13.6786C4.43702 13.4338 3.58058 13.0022 2.83828 12.4109C2.0526 11.7872 1.41089 11.0011 0.957031 10.1064Z" fill="#319F43"/>
</g>
<defs>
<clipPath id="clip0_72_617">
<rect width="14" height="14" fill="white"/>
</clipPath>
</defs>
</svg>
