<svg width="58" height="58" viewBox="0 0 58 58" fill="none" xmlns="http://www.w3.org/2000/svg">
<rect width="58" height="58" fill="#1E1E1E"/>
<g id="Package details" clip-path="url(#clip0_0_1)">
<rect width="1728" height="5286" transform="translate(-1373 -4964)" fill="white"/>
<path id="Rectangle 249" d="M-1373 -3835H355V322H-1373V-3835Z" fill="#F8F8F8"/>
<g id="Group 4814755">
<rect id="Rectangle 183" x="-1373" y="-158" width="1728" height="406.8" fill="white"/>
<g id="ri:instagram-fill">
<path id="Vector" d="M31.2179 5.19435C32.9665 5.18764 34.7151 5.20522 36.4632 5.24707L36.9281 5.26384C37.4648 5.28301 37.9944 5.30698 38.6342 5.33573C41.1838 5.45554 42.9234 5.85811 44.4498 6.44997C46.0313 7.05861 47.3636 7.88291 48.6959 9.21521C49.9141 10.4124 50.8569 11.8605 51.4588 13.4589C52.0506 14.9853 52.4532 16.7274 52.573 19.2769C52.6017 19.9143 52.6257 20.4463 52.6449 20.983L52.6593 21.4479C52.7018 23.1952 52.7202 24.943 52.7144 26.6908L52.7168 28.4784V31.6175C52.7227 33.3661 52.7043 35.1147 52.6617 36.8628L52.6473 37.3276C52.6281 37.8644 52.6041 38.394 52.5754 39.0337C52.4556 41.5833 52.0482 43.323 51.4588 44.8494C50.8589 46.4495 49.9158 47.8988 48.6959 49.0955C47.4977 50.3135 46.0488 51.2563 44.4498 51.8583C42.9234 52.4502 41.1838 52.8527 38.6342 52.9726C37.9944 53.0013 37.4648 53.0253 36.9281 53.0444L36.4632 53.0588C34.7151 53.1014 32.9665 53.1198 31.2179 53.1139L29.4303 53.1163H26.2937C24.5451 53.1222 22.7964 53.1039 21.0483 53.0612L20.5835 53.0468C20.0146 53.0262 19.4459 53.0023 18.8774 52.9749C16.3278 52.8551 14.5881 52.4478 13.0594 51.8583C11.4603 51.2577 10.0119 50.3147 8.81565 49.0955C7.59608 47.898 6.6524 46.449 6.05041 44.8494C5.45855 43.323 5.05598 41.5833 4.93617 39.0337C4.90948 38.4652 4.88552 37.8965 4.86428 37.3276L4.8523 36.8628C4.80813 35.1147 4.78816 33.3661 4.7924 31.6175V26.6908C4.78571 24.943 4.80328 23.1952 4.84512 21.4479L4.86189 20.983C4.88106 20.4463 4.90502 19.9143 4.93378 19.2769C5.05359 16.725 5.45615 14.9877 6.04802 13.4589C6.65036 11.8597 7.59589 10.412 8.81805 9.21761C10.0135 7.99734 11.461 7.0528 13.0594 6.44997C14.5881 5.85811 16.3254 5.45554 18.8774 5.33573L20.5835 5.26384L21.0483 5.25186C22.7956 5.20771 24.5434 5.18774 26.2913 5.19196L31.2179 5.19435ZM28.7546 17.1754C27.1671 17.153 25.591 17.4463 24.1178 18.0382C22.6447 18.6302 21.3039 19.5091 20.1734 20.6237C19.0428 21.7384 18.1451 23.0666 17.5323 24.5313C16.9196 25.9959 16.6041 27.5677 16.6041 29.1553C16.6041 30.743 16.9196 32.3148 17.5323 33.7794C18.1451 35.244 19.0428 36.5723 20.1734 37.6869C21.3039 38.8016 22.6447 39.6805 24.1178 40.2724C25.591 40.8644 27.1671 41.1577 28.7546 41.1352C31.9322 41.1352 34.9796 39.8729 37.2265 37.6261C39.4734 35.3792 40.7357 32.3317 40.7357 29.1541C40.7357 25.9766 39.4734 22.9291 37.2265 20.6822C34.9796 18.4353 31.9322 17.1754 28.7546 17.1754ZM28.7546 21.9679C29.7095 21.9503 30.6583 22.1232 31.5457 22.4764C32.433 22.8296 33.2411 23.3561 33.9227 24.0251C34.6043 24.6942 35.1457 25.4923 35.5154 26.3729C35.885 27.2536 36.0755 28.199 36.0757 29.1541C36.0758 30.1092 35.8857 31.0547 35.5163 31.9355C35.1469 32.8162 34.6058 33.6146 33.9244 34.2838C33.243 34.9531 32.4351 35.4798 31.5479 35.8334C30.6607 36.1869 29.7119 36.3601 28.757 36.3428C26.8504 36.3428 25.022 35.5854 23.6738 34.2373C22.3257 32.8892 21.5683 31.0607 21.5683 29.1541C21.5683 27.2476 22.3257 25.4191 23.6738 24.071C25.022 22.7229 26.8504 21.9655 28.757 21.9655L28.7546 21.9679ZM41.3347 13.5811C40.5617 13.6121 39.8306 13.9409 39.2946 14.4988C38.7586 15.0567 38.4592 15.8003 38.4592 16.574C38.4592 17.3477 38.7586 18.0913 39.2946 18.6492C39.8306 19.2071 40.5617 19.5359 41.3347 19.5669C42.1291 19.5669 42.891 19.2513 43.4527 18.6896C44.0144 18.1279 44.33 17.366 44.33 16.5716C44.33 15.7772 44.0144 15.0153 43.4527 14.4536C42.891 13.8919 42.1291 13.5763 41.3347 13.5763V13.5811Z" fill="#1E1E1E"/>
</g>
</g>
</g>
<defs>
<clipPath id="clip0_0_1">
<rect width="1728" height="5286" fill="white" transform="translate(-1373 -4964)"/>
</clipPath>
</defs>
</svg>
