<svg width="76" height="72" viewBox="0 0 76 72" fill="none" xmlns="http://www.w3.org/2000/svg">
<g clip-path="url(#clip0_5_1019)">
<path d="M7.73748 59.9303L7.85053 59.3974C7.89696 59.139 7.92724 58.8544 7.94541 58.5435C7.96156 58.271 7.96963 57.8511 7.96963 57.2838V53.3818C7.96963 52.8347 7.9555 52.4047 7.92522 52.0959C7.901 51.8496 7.86264 51.5892 7.81217 51.3187L7.63049 50.4971H8.71654L10.0892 50.5152C11.038 50.5536 11.793 50.7938 12.3542 51.2359C13.0405 51.7749 13.3837 52.4713 13.3837 53.3252C13.3837 53.6341 13.3413 53.9147 13.2586 54.165C13.1718 54.4416 13.0304 54.6959 12.8346 54.926C12.6408 55.1582 12.4329 55.3399 12.2109 55.4691C12.0191 55.5861 11.7728 55.7093 11.47 55.8385L11.9161 56.547C12.1624 56.9366 12.4672 57.3626 12.8326 57.8269C13.2626 58.3961 13.6744 58.8927 14.068 59.3187L15.0148 60.3098H13.2404C12.7801 59.896 12.445 59.575 12.2371 59.351C11.9202 59.0239 11.5608 58.6202 11.1652 58.1337C10.8139 57.7158 10.5031 57.3141 10.2305 56.9286L9.47758 55.8506V57.2172L9.5018 58.1014L9.55833 58.81C9.59668 59.2117 9.63705 59.5246 9.68348 59.7507L9.8147 60.3098H7.63251L7.7395 59.9263L7.73748 59.9303ZM9.47556 51.4499V55.4206L9.97013 55.3641C10.4546 55.2894 10.8705 55.0673 11.2177 54.6999C11.577 54.3144 11.7607 53.8824 11.7688 53.4019C11.7688 52.9215 11.5851 52.4875 11.2177 52.1039C10.8866 51.7608 10.4627 51.5569 9.94389 51.4903L9.47354 51.4519L9.47556 51.4499Z" fill="#0047AB"/>
<path d="M36.649 59.5448C36.649 59.5448 36.6449 59.555 36.6429 59.5611H36.6388C36.6388 59.5611 36.6449 59.5468 36.649 59.5448Z" fill="#F39200"/>
<path d="M15.7475 59.8556C15.794 59.6558 15.8384 59.3893 15.8787 59.0583L15.9413 58.4506C15.9575 58.2165 15.9655 57.9298 15.9655 57.5907V53.3999L15.9534 52.6793L15.9151 51.9586C15.8868 51.6417 15.8444 51.355 15.7899 51.0986L15.6264 50.4971H17.8086L17.6451 51.0986C17.5865 51.355 17.5441 51.6396 17.5199 51.9586L17.4816 52.6793L17.4695 53.3999V57.5907C17.4654 57.9298 17.4735 58.2165 17.4937 58.4506L17.5563 59.0583C17.5946 59.3893 17.637 59.6538 17.6875 59.8556L17.8066 60.3139H15.6244L15.7435 59.8556H15.7475Z" fill="#0047AB"/>
<path d="M21.8259 50.4971L21.6502 51.1935C21.5836 51.4822 21.5392 51.8213 21.519 52.2089L21.4867 52.8791V54.6919H25.6836V53.4181L25.6714 52.6268L25.621 51.9485C25.5927 51.6861 25.5544 51.4337 25.5079 51.1955L25.3444 50.493H27.5266L27.4075 50.9392C27.2904 51.3873 27.2218 51.8637 27.1996 52.3684L27.1875 53.3273V56.971L27.2056 57.9621L27.2682 58.9089C27.2965 59.24 27.3328 59.5044 27.3752 59.7063L27.5266 60.3078H25.3444L25.4756 59.8496C25.6129 59.2642 25.6836 58.7696 25.6836 58.3639V55.9112H21.4867V57.1648L21.5049 58.0611L21.5675 58.8645C21.6018 59.1955 21.6442 59.4903 21.6987 59.7487L21.8239 60.3078H19.6417L19.785 59.8133C19.89 59.3994 19.9525 58.8927 19.9727 58.2952L19.9788 57.4353V53.5655L19.9667 52.649L19.9041 51.8657C19.8698 51.5488 19.8355 51.2945 19.7971 51.1067L19.6396 50.491H21.8218L21.8259 50.4971Z" fill="#0047AB"/>
<path d="M30.8311 50.4971L30.7504 50.7918C30.6252 51.248 30.5465 51.7466 30.5122 52.2917L30.494 53.1375V59.246L31.1218 59.2016C31.5437 59.1693 31.9535 59.1128 32.3512 59.032C32.8235 58.9392 33.2737 58.8201 33.6996 58.6747L34.4708 58.38L33.6552 60.3119H28.6509L28.7822 59.8738C28.8367 59.6699 28.8811 59.4499 28.9134 59.2157C28.9558 58.9311 28.978 58.6606 28.982 58.4002L28.9881 57.3646V53.1678L28.9759 52.4713C28.9598 52.2674 28.9336 52.005 28.9013 51.6881L28.8064 51.0865L28.6489 50.4971H30.8311Z" fill="#0047AB"/>
<path d="M45.9631 59.7063C45.5614 59.0684 45.3333 58.6848 44.9578 57.9117C44.8225 57.6351 44.6651 57.296 44.3885 56.7025C44.223 56.3472 43.7022 55.2066 43.4095 54.5627C42.9876 53.6321 42.4223 52.3946 41.9702 51.4014C41.7743 50.9715 41.5301 50.4446 41.3403 50.0348C41.1526 49.625 41.0315 49.304 40.8114 48.9366C40.654 49.0537 40.6035 49.3686 40.553 49.5221C40.4662 49.7926 40.4016 49.9864 40.3391 50.2468C40.3088 50.3699 40.2724 50.483 40.3088 50.6162C40.3451 50.7494 40.3956 50.8039 40.4562 50.9594C40.5167 51.1148 40.6035 51.3288 40.6681 51.5185C41.0618 52.7095 41.5523 53.8965 42.0125 55.0674C42.3416 55.899 42.7029 56.7348 43.0865 57.5301C43.47 58.3235 43.8193 59.0401 43.9908 59.9041C44.0151 60.0272 44.0131 60.1685 44.0312 60.2957C44.8225 60.2957 45.6159 60.3058 46.4072 60.3139C46.2578 60.0959 46.1004 59.9324 45.9591 59.7063H45.9631Z" fill="#0047AB"/>
<path d="M40.8338 48.6682C40.8338 48.6682 40.8298 48.6845 40.8298 48.6906L40.8257 48.6947C40.8257 48.6947 40.8298 48.6783 40.8318 48.6682H40.8338Z" fill="#F39200"/>
<path d="M54.5404 38.4779C54.5364 38.4254 54.5202 38.3628 54.5243 38.3164C54.5283 38.27 54.5101 38.2336 54.5243 38.1973C54.5384 38.161 54.5889 38.1953 54.6171 38.1791C54.6454 38.163 54.6555 38.169 54.6959 38.1569C54.7362 38.1448 54.8352 38.1468 54.8775 38.1489C54.9199 38.1529 54.9724 38.1509 54.9987 38.1509C55.0269 38.1509 55.0653 38.1751 55.0673 38.1509C55.0673 38.1246 55.0431 38.1327 55.0007 38.1287C54.9583 38.1246 54.8977 38.1145 54.823 38.1024C54.7483 38.0903 54.5566 38.052 54.4819 38.0298C54.4072 38.0076 54.3446 37.9833 54.2962 37.9631C54.2477 37.943 54.2336 37.9349 54.2033 37.9208C54.173 37.9066 54.1771 37.9066 54.1508 37.8925C54.1266 37.8784 54.1347 37.8824 54.0983 37.8602C54.062 37.838 53.9974 37.7916 53.9449 37.7532C53.8945 37.7148 53.8258 37.6624 53.7733 37.6139C53.6401 37.4928 53.4867 37.3616 53.3575 37.2364C52.986 36.8771 52.6287 36.437 52.3179 36.0595C52.2553 35.9828 52.227 35.9525 52.2089 35.9243C51.9061 35.4156 51.6578 34.8826 51.4418 34.3659C51.2944 34.0146 51.1854 33.7259 51.03 33.3989C50.9674 33.2677 50.9048 33.1607 50.8321 33.0376C50.7595 32.9124 50.709 32.7792 50.5959 32.6843C50.4809 32.5894 50.3295 32.5531 50.2023 32.6439C50.0751 32.7368 50.0529 32.8862 50.061 33.0315C50.0893 33.7037 50.1397 34.3982 50.273 35.0482C50.4042 35.6982 50.6303 36.2998 50.8119 36.9215C50.9068 37.2465 51.0057 37.6058 51.0683 37.9107C51.1309 38.2155 51.1652 38.4496 51.1753 38.7323C51.1854 39.0149 51.1147 39.2511 51.0845 39.5195C51.0824 39.5397 51.0845 39.5316 51.0804 39.5518C51.0764 39.572 51.0683 39.5902 51.0582 39.6124C50.9452 39.8688 50.8402 40.1473 50.6827 40.3775C50.5253 40.6076 50.3577 40.8377 50.1337 40.9932C49.9116 41.1486 49.6916 41.3121 49.417 41.2516C48.9184 41.1405 48.5975 41.1002 48.2502 40.654C47.9051 40.2079 47.7113 39.7638 47.5054 39.136C47.36 38.6919 47.2328 37.9874 47.1339 37.4342C47.0047 36.7075 46.8775 35.9202 46.6515 35.1794C46.5263 34.7656 46.3789 34.277 46.0378 33.9601C45.7875 33.728 45.4826 33.6513 45.1435 33.7239C44.8024 33.7966 44.548 33.9298 44.2977 34.2044C44.0474 34.4789 43.9 34.8039 43.7224 35.1693C43.5447 35.5347 43.357 35.8738 43.1874 36.2957C42.9028 37.0083 42.6848 37.5695 42.4102 38.379C41.7703 40.2564 41.0658 42.3517 40.4077 44.2695C40.3229 44.5198 40.2442 44.7479 40.1655 44.978C38.5101 49.7179 36.982 54.6051 34.8039 59.137C32.983 62.924 29.7935 66.271 25.9964 68.114C24.549 68.8165 23.0451 69.2082 21.5594 69.4464C17.3968 70.1186 12.8871 68.5884 9.413 66.3517C7.02895 64.8175 5.03248 62.8312 3.45388 60.4855C2.1054 58.483 1.01532 56.3109 1.08396 53.838C1.09001 53.5957 1.10616 53.3555 1.13644 53.1153C1.28986 51.781 1.74608 50.4345 2.30727 49.2172C2.36783 49.086 2.42234 48.872 2.42032 48.7752C2.4183 48.6783 2.42637 48.7206 2.39004 48.6742C2.04484 48.2362 1.32014 50.0469 1.24141 50.2468C0.8942 51.1309 0.710501 52.0696 0.549007 52.9962C0.345121 54.1751 0.401644 55.2995 0.591399 56.4764C0.960816 58.7595 1.68148 61.0285 2.9916 62.9523C5.39584 66.489 8.76299 69.1032 12.6752 70.7747C16.767 72.5228 21.6926 72.3048 25.8006 70.7242C29.737 69.2102 33.0194 66.0893 35.141 62.484C37.5735 58.3477 38.603 53.4948 40.2321 49.0174C41.0173 46.8594 41.7642 44.6894 42.5293 42.5233C42.8584 41.5927 43.1067 40.868 43.4256 40.0262C43.7446 39.1824 44.0978 38.4739 44.5177 37.7068C44.6489 37.4665 44.8569 37.3192 45.1031 37.2929C45.3494 37.2667 45.5008 37.4141 45.5816 37.6079C45.9247 38.4274 45.9651 39.2531 46.1165 40.1191C46.2679 40.9851 46.4617 41.8632 46.8311 42.6687C47.0814 43.2117 47.4286 43.6094 47.8929 43.9828C48.2119 44.2392 48.6217 44.3179 49.0214 44.3886C49.2354 44.4269 49.4473 44.4411 49.6694 44.4007C49.8934 44.3603 50.063 44.3058 50.277 44.1706C50.491 44.0353 50.7272 43.8395 50.8967 43.6154C51.0683 43.3914 51.2116 43.139 51.3388 42.8726C51.466 42.6061 51.5891 42.3134 51.684 42.0227C51.9363 41.2617 52.1584 40.4824 52.3724 39.7073C52.437 39.8163 52.4995 39.9091 52.5964 39.9959C52.6933 40.0807 52.7781 40.1837 52.8952 40.2523C53.3878 40.541 53.8642 40.7368 54.4455 40.7509C54.494 40.7509 54.4092 40.5168 54.4476 40.4764C54.4859 40.436 54.5303 40.6944 54.5283 40.6197C54.5122 40.3008 54.5667 39.9616 54.5848 39.6084C54.601 39.2551 54.5788 38.8392 54.5485 38.4759L54.5404 38.4779Z" fill="#FF8000"/>
<path d="M71.0149 29.1335C70.5021 29.1335 70.0479 29.083 69.6523 28.98C69.2041 28.9013 68.6732 28.7822 68.0595 28.6227C67.6619 28.4976 67.1128 28.3563 66.4083 28.1968C65.8067 28.0615 65.1728 27.9747 64.5067 27.9424H64.2947C63.7961 27.9424 63.3722 28.0494 63.027 28.2654C62.6818 28.4814 62.4133 28.8105 62.2215 29.2526C62.0419 29.6381 61.9329 30.0923 61.8945 30.6152V32.1473C61.8945 32.4199 61.9329 32.7651 62.0096 33.1849C62.0217 33.4696 62.0802 33.8935 62.1832 34.4607C62.3366 35.3348 62.4194 35.8274 62.4335 35.9424C62.4597 36.0676 62.4718 36.1928 62.4718 36.3179C62.4456 36.3401 62.4133 36.3866 62.3749 36.4532C62.278 36.6248 62.0641 36.7257 61.8945 36.8125C61.622 36.9518 61.3192 37.0144 61.0144 37.0144C60.8953 37.0144 60.7762 37.0063 60.655 37.0063C60.6026 37.0063 60.548 37.0063 60.4956 37.0063C60.4895 37.0063 60.4451 37.0002 60.4411 37.0063C60.5581 37.0184 60.6793 37.0144 60.7963 37.0204C60.8347 37.0204 60.8731 37.0224 60.9114 37.0265C60.9175 37.0265 60.9498 37.0325 60.9457 37.0325C60.9013 37.0446 60.869 37.0628 60.8448 37.085C60.7338 37.194 60.8165 37.41 60.8165 37.5453C60.8165 37.731 60.8165 37.9147 60.8165 38.0984C60.8165 38.7322 60.8145 39.3641 60.8105 39.998C60.8105 40.004 60.3442 39.7295 60.3058 39.7032C60.2109 39.6366 60.1181 39.568 60.0232 39.5014C60.1322 39.5902 60.2392 39.683 60.3482 39.7719C60.4512 39.8546 60.5581 39.9334 60.6752 39.998C60.7338 40.0303 60.7923 40.0605 60.8549 40.0868C60.9881 40.1413 61.1395 40.1231 61.2808 40.1211C61.4342 40.1191 61.5877 40.111 61.7411 40.0868C61.8138 40.0747 61.8864 40.0605 61.9571 40.0404C62.0237 40.0202 62.0903 39.9858 62.1549 39.9556C62.2922 39.893 62.4254 39.8244 62.5566 39.7497C62.6878 39.675 62.817 39.5942 62.9402 39.5054C62.9846 39.4731 63.4166 39.1723 63.3903 39.1279C63.5942 39.4691 63.7416 39.7174 63.8324 39.8768C63.8708 39.9334 64.006 40.1494 64.2362 40.5228C64.3775 40.7267 64.5248 40.9023 64.6783 41.0497L64.8317 41.1183C64.8579 41.1183 64.87 41.0719 64.87 40.9831C64.7166 40.3694 64.5955 39.9112 64.5046 39.6043C64.4017 39.3096 64.3008 38.8776 64.1978 38.3103C64.3512 38.1751 64.5248 37.9349 64.7166 37.5957C64.8196 37.4363 65.1002 37.0123 65.5624 36.3199C66.2024 35.4681 66.6 34.9573 66.7534 34.7878C67.1754 34.2326 67.6114 33.7542 68.0595 33.3585C68.5844 32.9265 69.0769 32.6096 69.5372 32.4057C69.8703 32.2463 70.2094 32.1675 70.5546 32.1675C70.708 32.1675 70.8615 32.1837 71.0149 32.218C71.0411 32.218 71.0734 32.0989 71.1118 31.8607C71.2147 31.1683 71.2712 30.7827 71.2854 30.704C71.2975 30.6475 71.3298 30.381 71.3802 29.9046C71.4307 29.4282 71.457 29.1678 71.457 29.1213C71.3035 29.1335 71.1562 29.1375 71.0149 29.1375V29.1335ZM66.0994 32.1978C65.7663 32.5268 65.4332 32.9064 65.1002 33.3384C64.9851 33.4978 64.6783 33.8773 64.1776 34.4789C63.8445 34.8867 63.5639 35.1774 63.3318 35.3469C63.3197 35.2783 63.2934 35.1431 63.2551 34.9392C63.2046 34.701 63.1582 34.3376 63.1198 33.8491C63.0694 33.5665 63.0169 33.1849 62.9664 32.7085L62.8897 32.0626C62.8897 31.6084 63.0371 31.2854 63.3318 31.0916C63.6508 30.9099 64.0101 30.8191 64.4078 30.8191C64.8054 30.8191 65.2717 30.8756 65.8087 30.9886C66.5253 31.136 66.9674 31.2208 67.133 31.243C66.7494 31.5155 66.4042 31.8324 66.0954 32.1958L66.0994 32.1978Z" fill="#FF8000"/>
<path d="M60.326 40.0868C60.3381 40.0868 60.3502 40.0908 60.3603 40.0928C60.5561 40.1231 60.756 40.1393 60.9538 40.1251C61.0628 40.1171 61.1698 40.1009 61.2748 40.0706C61.3798 40.0404 61.4807 39.998 61.5776 39.9475C61.6704 39.9011 61.7552 39.8284 61.8218 39.7476C61.9026 39.6487 61.9349 39.4792 61.9611 39.356C61.9955 39.1925 62.0055 39.025 61.9975 38.8594C61.9753 38.4819 61.8562 38.1145 61.8319 37.735C61.8198 37.5332 61.9753 37.1779 61.735 37.0668C61.6624 37.0325 61.5776 37.0204 61.4968 37.0285C60.0252 37.1678 58.6868 36.1039 57.9016 34.8544C56.2019 32.1514 58.378 29.2647 58.6424 26.493C58.6687 26.2225 58.7514 25.9541 58.6969 25.6876C58.6424 25.4231 58.4628 25.1668 58.2044 25.1042C58.1257 25.086 57.6916 26.596 57.6593 26.701C56.9912 28.8387 56.1474 30.9543 56.0727 33.2172C56.0161 34.925 56.4865 36.7479 57.4857 38.1186C57.5019 38.1408 57.518 38.163 57.5342 38.1832C57.8592 38.6132 58.2488 38.9947 58.6848 39.3015C58.8625 39.4267 59.0522 39.5417 59.2339 39.6629C59.3934 39.7678 59.5569 39.8667 59.7285 39.9495C59.8274 39.998 59.9324 40.0282 60.0414 40.0504C60.1363 40.0706 60.2311 40.0787 60.324 40.0928L60.326 40.0868Z" fill="#FF8000"/>
<path d="M48.3814 29.519C48.0665 29.3434 47.8081 29.2203 47.6103 29.1516C47.142 28.9881 46.8634 28.8953 46.7685 28.871C46.5 28.8125 46.3183 28.7842 46.2255 28.7842C46.1791 28.7842 46.1023 28.9296 45.9974 29.2223C45.9267 29.4201 45.8217 29.7411 45.6825 30.1872C45.636 30.4436 45.5714 30.7726 45.4887 31.1683L45.4543 31.6063C45.6179 31.6528 46.0216 31.7981 46.6635 32.0444C47.1783 32.2786 47.5639 32.4481 47.8202 32.5531H47.8566C47.9151 32.5531 47.9898 32.4663 48.0847 32.2907C48.1553 32.1514 48.2542 31.8991 48.3834 31.5377C48.5227 31.14 48.6176 30.8372 48.664 30.6253C48.7105 30.2276 48.7347 29.9934 48.7347 29.9248C48.7347 29.7855 48.6176 29.6503 48.3834 29.5211L48.3814 29.519Z" fill="#FF8000"/>
<path d="M57.0961 36.4189C57.0598 36.4693 57.0436 36.5178 57.0012 36.5703C56.7691 36.8609 56.4925 37.2021 56.2119 37.4302C55.9374 37.6543 55.6306 37.8703 55.2934 37.9995C55.1622 38.0499 55.027 38.0863 54.8897 38.1065C54.7888 38.1206 54.6798 38.1246 54.5768 38.1166C54.5445 38.1145 54.5102 38.1065 54.4799 38.1206C54.4052 38.159 54.4153 38.2801 54.3972 38.3568C54.375 38.4577 54.3245 38.6475 54.2861 38.7726C54.2094 39.0189 54.1044 39.3419 54.0298 39.572C53.9551 39.8001 53.9329 39.9213 53.8662 40.1473C53.8339 40.2564 53.8299 40.3613 53.7916 40.4683C53.7653 40.543 53.7492 40.6379 53.8218 40.6904C53.8582 40.7166 53.9026 40.7267 53.947 40.7348C54.7403 40.8922 55.5781 40.652 56.2019 40.1473C56.9084 39.574 57.3283 38.8796 57.7704 38.1145C58.0247 37.6745 58.0933 37.1617 58.269 36.6934C57.8693 36.6227 57.4837 36.5339 57.0981 36.4168L57.0961 36.4189Z" fill="#FF8000"/>
<path d="M48.7832 30.8372C48.8639 30.4396 48.9285 30.1125 48.977 29.8562C49.1162 29.4121 49.2212 29.0911 49.2919 28.8912C49.3968 28.5985 49.4735 28.4532 49.52 28.4532C49.6128 28.4532 49.7945 28.4814 50.063 28.54C50.1559 28.5622 50.4365 28.6571 50.9048 28.8206C51.1026 28.8912 51.361 29.0124 51.6759 29.188C51.9101 29.3172 52.0272 29.4504 52.0272 29.5917C52.0272 29.6624 52.0029 29.8945 51.9565 30.2922C51.9101 30.5021 51.8172 30.807 51.6759 31.2046C51.5467 31.566 51.4478 31.8183 51.3772 31.9576C51.2843 32.1332 51.2076 32.22 51.149 32.22H51.1127C50.8563 32.1151 50.4708 31.9455 49.956 31.7113C49.3121 31.465 48.9103 31.3197 48.7468 31.2733L48.7811 30.8352L48.7832 30.8372Z" fill="#FF8000"/>
<path d="M60.9074 0.274475C61.3919 2.93509 62.5809 5.29491 64.0848 7.40039C66.7151 12.0232 70.9321 15.6709 73.1951 20.6429C75.5206 25.6875 76.0959 31.5821 74.3497 36.9053C72.6278 42.2104 68.2877 47.0249 62.6172 48.01C59.8315 48.2785 57.1446 47.8324 54.4658 47.1985C56.4724 47.1541 58.4567 47.0915 60.4169 46.7504C61.0568 46.6394 61.6806 46.488 62.2882 46.3063C62.8938 46.1387 63.5155 46.0499 64.1009 45.8218L64.539 45.6623C68.5239 44.0575 71.3641 40.3794 72.7025 36.3583C74.3033 31.4973 73.7623 25.9984 71.6205 21.3736C70.5526 19.0421 68.9821 16.9427 67.3369 14.8614C65.6634 12.7479 63.9273 10.6343 62.5627 8.27246C61.4161 5.78141 60.6652 3.02996 60.9034 0.274475H60.9074Z" fill="#FF8000"/>
<path d="M55.897 4.51249e-06C57.9944 4.39869 57.0819 9.27984 54.1105 13.0487C51.7728 15.7416 48.8518 17.8976 45.8339 19.7325C42.5031 21.8138 38.7807 23.4368 35.472 25.4393C34.3981 26.1559 33.2051 26.9069 32.6661 28.0131C32.3956 28.6813 32.759 29.1173 33.2394 29.6563C35.0098 31.3863 37.3111 32.535 38.8675 34.598C40.4844 36.7055 40.7145 39.0129 39.0774 41.1749C34.6727 46.8675 22.4032 50.0469 16.1291 46.0823C15.2147 45.4888 14.3063 44.7984 13.6886 43.8819C13.0668 42.9675 12.6388 41.9521 12.3683 40.9286C11.5912 37.9389 12.0817 34.7696 12.9376 31.9071C12.7398 33.8511 12.6812 35.8355 12.9941 37.7532C13.3918 40.2059 14.2881 41.9864 16.0867 43.6639C19.9303 46.9967 26.174 46.1469 30.6494 44.542C33.2374 43.6054 38.3164 41.0235 38.2942 37.9329C37.9045 35.2198 35.0441 33.6856 33.0517 32.0444C32.1594 31.3056 31.2914 30.6091 30.8271 29.41C29.4201 25.4676 37.0547 22.4719 39.7193 20.9498C44.3784 18.4688 49.1829 15.8769 52.6045 11.785C55.7799 8.41787 57.0678 4.5723 55.895 -0.00201416L55.897 4.51249e-06Z" fill="#FF8000"/>
<path d="M8.27859 48.7752C8.21803 48.5511 8.12517 48.1837 8.01414 47.7477L8.23014 47.4751C8.2907 47.3984 8.28868 47.2935 8.2261 47.241C8.1615 47.1905 8.06057 47.2127 7.99799 47.2914L7.9233 47.3843C7.85265 47.1037 7.77997 46.8009 7.70326 46.4961L8.00001 46.1206C8.06259 46.0439 8.06057 45.9389 7.99597 45.8885C7.93137 45.838 7.83044 45.8602 7.76988 45.9389L7.61444 46.1347C7.53975 45.8299 7.46708 45.5291 7.39643 45.2445L7.7073 44.8529C7.76988 44.7762 7.76786 44.6692 7.70326 44.6207C7.64069 44.5703 7.53773 44.5925 7.47717 44.6712L7.30962 44.8811C7.14611 44.2089 7.02297 43.6901 6.99067 43.5629L8.07066 42.3194C8.31694 42.0409 8.6258 41.2314 8.30281 40.973C7.9778 40.7166 7.25916 41.2031 7.04316 41.5059L6.08631 42.8221C6.07218 42.8221 5.48878 42.8221 4.69948 42.816L4.86501 42.6061C4.92759 42.5274 4.92557 42.4224 4.86097 42.3719C4.79638 42.3215 4.69544 42.3437 4.63286 42.4224L4.32401 42.814C4.0313 42.814 3.72042 42.81 3.40753 42.81L3.56297 42.6142C3.62353 42.5375 3.62151 42.4325 3.55893 42.382C3.49433 42.3316 3.39138 42.3538 3.33082 42.4325L3.03407 42.808C2.72118 42.8059 2.41232 42.8039 2.11962 42.7999L2.19431 42.703C2.25487 42.6243 2.25285 42.5213 2.19027 42.4708C2.12567 42.4204 2.02272 42.4426 1.96014 42.5193L1.74616 42.7918C1.29398 42.7878 0.916486 42.7797 0.684339 42.7736C-0.177635 42.7474 -1.2657 43.2561 4.68737 44.7439L3.34697 46.5869L2.84836 47.1804L1.54026 47.1198L1.33839 47.3762L2.78981 47.9233L3.62756 49.1769L3.82943 48.9205L3.49231 47.6851L3.94853 47.0694L5.44437 45.3454C8.26445 50.7817 8.50871 49.6048 8.28262 48.7731L8.27859 48.7752Z" fill="#0047AB"/>
<path d="M58.7413 0.151367C59.0966 4.33002 60.7701 8.18165 61.513 12.2997C62.0217 15.1057 61.836 18.0469 61.3252 20.8488C60.8347 23.6245 59.6316 26.3033 58.2851 28.7136C57.6371 29.9228 57.0255 31.1178 56.5208 32.4239L56.325 32.3916C56.2685 30.9624 56.5955 29.5331 56.9911 28.1847C57.8551 25.5321 58.6828 23.0451 59.4176 20.4007C59.789 19.1107 60.0858 17.8026 60.221 16.4723C60.5218 13.8339 60.1019 11.141 59.569 8.43398C59.0522 5.72694 58.4809 2.95127 58.5415 0.159442L58.7393 0.151367H58.7413Z" fill="#FF8000"/>
<path d="M49.1244 53.1173V60.1766H47.4933V53.1173H45.3051V51.7305H51.3126V53.1173H49.1244Z" fill="#0047AB"/>
<path d="M52.3765 60.1746V51.7285H54.0015V60.1746H52.3765Z" fill="#0047AB"/>
<path d="M61.3475 59.8879C60.6672 60.1443 59.9344 60.2735 59.1471 60.2735C57.7744 60.2735 56.753 59.8617 56.0848 59.0381C55.5216 58.3416 55.241 57.4029 55.241 56.22C55.241 54.8352 55.5942 53.739 56.2988 52.9316C57.0396 52.0757 58.0974 51.6477 59.4701 51.6477C60.11 51.6477 60.7116 51.7305 61.2728 51.898L61.0467 53.4019C60.5339 53.2021 59.9828 53.1032 59.3974 53.1032C58.6283 53.1032 58.0348 53.3696 57.619 53.9046C57.2273 54.4052 57.0315 55.0855 57.0315 55.9455C57.0315 57.8471 57.8531 58.7999 59.4943 58.7999C60.0817 58.7999 60.6147 58.6828 61.0951 58.4446L61.3454 59.8859L61.3475 59.8879Z" fill="#0047AB"/>
<path d="M26.3457 37.3455C26.0833 37.7088 25.8693 37.9773 25.7098 38.1529C25.4171 38.4941 25.1688 38.7525 24.9629 38.9281C24.7146 39.1481 24.5249 39.2571 24.3916 39.2571C24.2584 39.2571 24.1292 39.2733 23.996 39.3056C23.7759 39.35 23.5135 39.3984 23.2067 39.453C22.8413 39.5075 22.5264 39.5458 22.2619 39.568C21.8966 39.6225 21.5816 39.6508 21.3172 39.6508C21.0245 39.6508 20.8792 39.6225 20.8792 39.568C20.8792 39.5236 20.9377 39.4752 21.0548 39.4207C21.7573 39.1562 22.4739 38.8938 23.2067 38.6293C23.3238 38.597 23.5135 38.5304 23.778 38.4315C23.8224 38.4093 24.0041 38.3265 24.327 38.1852C24.5471 38.0964 24.7005 38.0197 24.7873 37.9551C24.9185 37.8885 24.9851 37.834 24.9851 37.7896C24.9851 37.7351 24.8458 37.7068 24.5673 37.7068C24.1433 37.7068 23.8143 37.6906 23.5801 37.6584C23.1986 37.6038 22.8857 37.5211 22.6354 37.4121C22.3427 37.2809 22.1973 37.0608 22.1973 36.752C22.1973 36.3785 22.3427 35.9667 22.6354 35.5165C22.8978 35.0886 23.2208 34.6869 23.6003 34.3134C23.9516 33.9622 24.3392 33.6654 24.7631 33.4232C25.1143 33.2031 25.4212 33.082 25.6856 33.0598C25.8754 33.082 26.0288 33.1365 26.1459 33.2253C26.2771 33.3243 26.3437 33.4514 26.3437 33.6049C26.3437 33.6493 26.3215 33.7704 26.2771 33.9682L26.1681 34.1983L26.1015 34.3457L26.1459 34.2468L26.1237 34.3296V34.3134L26.1015 34.3619L26.0793 34.4103C26.0066 34.5536 25.9036 34.6687 25.7724 34.7555C25.6856 34.8544 25.5665 34.9029 25.4212 34.9029C25.3041 34.9029 25.2375 34.8968 25.2233 34.8867C25.1789 34.8544 25.1567 34.8201 25.1567 34.7878L25.0901 34.6889C25.0457 34.6566 24.9811 34.6404 24.8923 34.6404C24.8337 34.6404 24.7086 34.6788 24.5188 34.7555C24.3432 34.8443 24.1898 34.9432 24.0586 35.0522C23.8688 35.1734 23.7295 35.2945 23.6407 35.4156C23.5095 35.5145 23.4429 35.5973 23.4429 35.6619C23.4429 35.7709 23.5155 35.8537 23.6629 35.9082C23.8244 35.9627 24.0222 36.001 24.2564 36.0232C24.3432 36.0333 24.4684 36.0454 24.6298 36.0555C24.8055 36.0555 24.9367 36.0616 25.0255 36.0717C25.3041 36.0717 25.5524 36.0999 25.7724 36.1544C25.9622 36.1645 26.16 36.2211 26.3659 36.32C26.5274 36.4189 26.6081 36.5622 26.6081 36.7479C26.6081 36.8468 26.5213 37.0447 26.3457 37.3414V37.3455Z" fill="#FF8000"/>
</g>
<defs>
<clipPath id="clip0_5_1019">
<rect width="75.3671" height="72" fill="white"/>
</clipPath>
</defs>
</svg>
