<svg width="15" height="15" viewBox="0 0 15 15" fill="none" xmlns="http://www.w3.org/2000/svg">
<path d="M5.9518 2.66328C5.9556 2.83636 5.92479 3.00845 5.86118 3.16945C5.79757 3.33046 5.70244 3.47714 5.58138 3.60089C5.46031 3.72464 5.31576 3.82296 5.15618 3.89008C4.99661 3.95721 4.82523 3.99178 4.65212 3.99178C4.479 3.99178 4.30763 3.95721 4.14805 3.89008C3.98848 3.82296 3.84392 3.72464 3.72286 3.60089C3.60179 3.47714 3.50666 3.33046 3.44305 3.16945C3.37944 3.00845 3.34863 2.83636 3.35243 2.66328C3.35243 2.3185 3.48939 1.98784 3.73319 1.74404C3.97699 1.50025 4.30765 1.36328 4.65243 1.36328C4.99721 1.36328 5.32787 1.50025 5.57167 1.74404C5.81547 1.98784 5.95243 2.3185 5.95243 2.66328H5.9518ZM7.09555 7.13391C7.56368 7.18578 7.82368 7.60203 7.7718 8.01766C7.75743 8.13266 7.71555 8.23891 7.6543 8.33141C7.89977 8.70052 8.03106 9.13376 8.0318 9.57703V10.4614C8.0318 10.7733 8.2393 10.9808 8.55118 10.9808H13.2306C13.5424 10.9808 13.7499 11.1889 13.7499 11.5008C13.7499 11.8133 13.5424 12.0208 13.2306 12.0208H8.55118C7.66743 12.0208 6.9918 11.3452 6.9918 10.4614V9.57766C6.9918 9.19141 6.81305 8.80578 6.45555 8.58641C5.69161 8.4505 4.97869 8.11034 4.39243 7.60203C4.39243 7.54953 4.34055 7.54953 4.34055 7.54953C4.28868 7.54953 4.1843 7.60203 4.1843 7.65391L3.97618 8.38141C3.9443 8.41391 3.9518 8.42578 3.96243 8.44266C3.97134 8.45527 3.97615 8.47033 3.97618 8.48578C5.17243 10.097 5.37993 10.4608 5.89993 12.6445V12.6964C5.9518 13.1127 5.6918 13.5802 5.27618 13.6327C4.86055 13.6845 4.44493 13.4245 4.34055 13.0083C4.02805 11.5527 3.87243 11.137 3.4043 10.4089L2.78055 13.0089C2.75665 13.1079 2.71348 13.2011 2.65352 13.2834C2.59355 13.3657 2.51797 13.4353 2.43108 13.4884C2.3442 13.5414 2.24771 13.5768 2.14714 13.5926C2.04656 13.6083 1.94387 13.6041 1.84493 13.5802C1.74592 13.5563 1.65258 13.5132 1.57024 13.4533C1.48791 13.3933 1.41819 13.3178 1.36508 13.2309C1.31197 13.144 1.27651 13.0475 1.26072 12.9469C1.24493 12.8463 1.24912 12.7435 1.27305 12.6445L3.09243 5.36641C3.1968 5.05391 3.4568 4.79453 3.76868 4.79453C4.34055 4.69078 4.54805 5.10641 4.7043 5.41828C5.11993 6.25016 5.4843 6.87453 7.09555 7.13391Z" fill="#FF8000"/>
<path d="M9.43488 13.5797C9.52361 13.5797 9.61146 13.5622 9.69343 13.5283C9.7754 13.4943 9.84988 13.4446 9.91262 13.3818C9.97536 13.3191 10.0251 13.2446 10.0591 13.1626C10.093 13.0807 10.1105 12.9928 10.1105 12.9041C10.1105 12.8154 10.093 12.7275 10.0591 12.6455C10.0251 12.5636 9.97536 12.4891 9.91262 12.4263C9.84988 12.3636 9.7754 12.3138 9.69343 12.2799C9.61146 12.2459 9.52361 12.2285 9.43488 12.2285C9.2557 12.2285 9.08385 12.2996 8.95714 12.4263C8.83044 12.553 8.75926 12.7249 8.75926 12.9041C8.75926 13.0833 8.83044 13.2551 8.95714 13.3818C9.08385 13.5085 9.2557 13.5797 9.43488 13.5797ZM12.8143 12.9041C12.8143 13.0833 12.7431 13.2551 12.6164 13.3818C12.4897 13.5085 12.3178 13.5797 12.1386 13.5797C11.9594 13.5797 11.7876 13.5085 11.6609 13.3818C11.5342 13.2551 11.463 13.0833 11.463 12.9041C11.463 12.7249 11.5342 12.553 11.6609 12.4263C11.7876 12.2996 11.9594 12.2285 12.1386 12.2285C12.3178 12.2285 12.4897 12.2996 12.6164 12.4263C12.7431 12.553 12.8143 12.7249 12.8143 12.9041ZM11.5668 10.6166H12.918C13.0558 10.6162 13.1879 10.5614 13.2853 10.4639C13.3828 10.3665 13.4377 10.2344 13.438 10.0966V7.13345C13.4377 6.99564 13.3828 6.86357 13.2853 6.76612C13.1879 6.66868 13.0558 6.61378 12.918 6.61345H12.7624C12.6586 6.61345 12.6061 6.56158 12.6061 6.4572V6.04158C12.6072 5.99351 12.5986 5.94571 12.5807 5.90107C12.5628 5.85644 12.5361 5.8159 12.5021 5.78189C12.4681 5.74789 12.4275 5.72114 12.3829 5.70325C12.3383 5.68537 12.2905 5.67672 12.2424 5.67783C12.1943 5.67672 12.1465 5.68537 12.1019 5.70325C12.0572 5.72114 12.0167 5.74789 11.9827 5.78189C11.9487 5.8159 11.9219 5.85644 11.9041 5.90107C11.8862 5.94571 11.8775 5.99351 11.8786 6.04158V6.45783C11.8786 6.56158 11.8268 6.61408 11.7224 6.61408H11.5661C11.4285 6.61457 11.2967 6.66945 11.1994 6.76675C11.1021 6.86404 11.0473 6.99586 11.0468 7.13345V10.0966C11.0468 10.4091 11.2549 10.6166 11.5668 10.6166ZM9.27926 10.6166H8.91551C8.60301 10.6166 8.39551 10.4085 8.39551 10.0966V7.13345C8.39551 6.82158 8.65551 6.61345 8.91551 6.61345H9.27926C9.38301 6.61345 9.43551 6.66533 9.43551 6.7697V10.461C9.43551 10.5647 9.38301 10.6166 9.27926 10.6166ZM9.90301 10.6166H10.2668C10.4046 10.6162 10.5366 10.5614 10.6341 10.4639C10.7315 10.3665 10.7864 10.2344 10.7868 10.0966V7.13345C10.7864 6.99564 10.7315 6.86357 10.6341 6.76612C10.5366 6.66868 10.4046 6.61378 10.2668 6.61345H9.90301C9.79926 6.61345 9.74676 6.66533 9.74676 6.7697V10.461C9.74676 10.5647 9.85113 10.6166 9.90301 10.6166Z" fill="#FF8000"/>
</svg>
